<svg xmlns="http://www.w3.org/2000/svg" width="373.53" height="358.731" viewBox="0 0 373.53 358.731">
  <g id="register-bg" transform="translate(-266 -645)">
    <g id="Group_6780" data-name="Group 6780" transform="translate(266 645)">
      <path id="Path_6673" data-name="Path 6673" d="M226.308,530.793c22.178,22.675,31.963,50.077,35.865,74.18a164.66,164.66,0,0,0,41.546,86.012c12.05,12.957,22.928,31.925,26.547,59.375,9.452,71.707-9.655,95.924-9.655,95.924L-8.673,847.2s-51.3-197.624,2.457-290.733S173.743,477.05,226.308,530.793Z" transform="translate(31.248 -488.467)" fill="#def4e9"/>
      <path id="Path_6674" data-name="Path 6674" d="M176.123,702.859a21.643,21.643,0,0,0-8.027-1.565c-2.727-4.093-9.085-6.825-16.31-6.825a24.554,24.554,0,0,0-11.618,2.753c-3.528-5.086-11.632-8.64-20.813-8.64a30.6,30.6,0,0,0-15.993,4.161c-.607-.061-1.22-.091-1.834-.091-6.571,0-11.915,3.371-11.915,7.515a5.128,5.128,0,0,0,.793,2.692Z" transform="translate(-46.6 -617.886)" fill="#7a7a7a" style="mix-blend-mode: screen;isolation: isolate"/>
      <path id="Path_6675" data-name="Path 6675" d="M713.687,1199.57a29.411,29.411,0,0,1,10.916-2.128c3.708-5.566,12.353-9.281,22.178-9.281a33.382,33.382,0,0,1,15.8,3.744c4.8-6.916,15.817-11.749,28.3-11.749a43.9,43.9,0,0,1,18.272,3.78,128.913,128.913,0,0,1,2.563,13.755q.125.945.242,1.879Z" transform="translate(-450.203 -935.797)" fill="#7a7a7a" style="mix-blend-mode: screen;isolation: isolate"/>
      <path id="Path_6676" data-name="Path 6676" d="M-30.164,1053.744H48.885a21.634,21.634,0,0,0-8.027-1.565c-2.727-4.093-9.084-6.825-16.309-6.825a24.552,24.552,0,0,0-11.618,2.753c-3.528-5.086-11.632-8.641-20.814-8.641a30.6,30.6,0,0,0-15.993,4.161c-.607-.061-1.22-.092-1.834-.092a17.955,17.955,0,0,0-4.738.623Q-30.348,1048.961-30.164,1053.744Z" transform="translate(31.045 -844.811)" fill="#7a7a7a" style="mix-blend-mode: screen;isolation: isolate"/>
      <path id="Path_6677" data-name="Path 6677" d="M628.44,760.533a.733.733,0,0,1-.047-1.465q.52-.03,1.049-.035c2.614-3.924,8.709-6.543,15.635-6.543a23.535,23.535,0,0,1,11.137,2.64c3.382-4.876,11.15-8.283,19.952-8.283a33.821,33.821,0,0,1,5.808.5c1.483,4.429,2.722,8.838,3.751,13.185Z" transform="translate(-394.598 -655.567)" fill="#7a7a7a" style="mix-blend-mode: screen;isolation: isolate"/>
      <path id="Path_6678" data-name="Path 6678" d="M-28.837,1490.343H338.088a3.3,3.3,0,0,0,3.3-3.3h0a3.3,3.3,0,0,0-3.3-3.3H-28.837a3.3,3.3,0,0,0-3.3,3.3h0A3.3,3.3,0,0,0-28.837,1490.343Z" transform="translate(32.139 -1132.13)" fill="#066759"/>
      <g id="Group_6777" data-name="Group 6777" transform="translate(61.033 5.271)">
        <g id="Group_6773" data-name="Group 6773" transform="translate(0 52.388)">
          <path id="Path_6679" data-name="Path 6679" d="M160.576,1401.807s-3.2,3.169-3.277,4.332-.284,13.622,1.025,14.786,5.15,1.988,3.915,3.3c-.933.989-8.116.778-12.876.512-1.39-.078-3.133-11.315-3.683-12.967-.8-2.4-3.679-7.62-2.953-9.292.354-.815,2.984-2.672,5.371-4.234a21.989,21.989,0,0,0,4.913-5.3Z" transform="translate(-141.908 -1131.067)" fill="#f7a491"/>
          <path id="Path_6680" data-name="Path 6680" d="M307.612,1439.759s-2.868,8.211-2.871,8.232c-.213,1.3-1.053,4.515-1.053,5.7,0,4.443,19.766-3.771,15.336-5.74a4.751,4.751,0,0,1-1.791-3.113c-.2-2.33,1.665-5.252,1.665-5.252Z" transform="translate(-246.081 -1161.234)" fill="#f7a491"/>
          <g id="Group_6770" data-name="Group 6770" transform="translate(8.042 122.639)">
            <path id="Path_6681" data-name="Path 6681" d="M339.151,998.824l7.156,18.533s4.669,44.228,1.95,70.7c-1.137,11.072-25.753,70.346-25.753,70.346l-12.226-1.747,16.376-70.191-6.026-26.842-8.527-53.058Z" transform="translate(-258.386 -998.824)" fill="#422226"/>
            <path id="Path_6682" data-name="Path 6682" d="M210.443,1001.559,204.3,1022.2l-9.338,62.285-31.577,58.264s4.748,7.29,9.847,8.437l44.82-58.887,24.291-73.72-.853-16.378Z" transform="translate(-163.388 -1000.593)" fill="#542d34"/>
          </g>
          <path id="Path_6683" data-name="Path 6683" d="M392.384,941.017c.719,1.892,2.293,3.714,4.055,3.992,3.055.256,2.338-.2,4.817-1.562,2-1.1,3.055-2.061,3.027-3.356-1.291-1.607-2.816-3.608-2.558-3.793.436-.313,2.559-3.411-3.775-4.974-.7-.173-6.108-8.341-6.108-8.341s-16.187-23.658-17.017-24.967l-5.282-29.336-15.165-1.363s6.588,31.752,7.22,33.349,26.218,30.967,28.388,33.628C389.985,934.294,391.406,938.443,392.384,941.017Z" transform="translate(-278.862 -791.137)" fill="#eb9481"/>
          <g id="Group_6771" data-name="Group 6771" transform="translate(113.167 79.436)">
            <path id="Path_6684" data-name="Path 6684" d="M484.7,879.422l-3.47,28.459c-.289.652-2.8,7.1-5.559,13.252h0c-1.8,3.7-6.192,14.758-6.723,15.2-5.824,4.883-7.054,6.149-7.99,9.693,0,2.093,2.309,4.517,3.5,5.008a1.861,1.861,0,0,0,2.757-1.06c.883-2.208,2.733-.613,4.163-1.284a8.41,8.41,0,0,0,3.033-4.578c.535-2.515,1.613-6.406,1.613-6.406.672-1.128,4.342-6.9,8.487-13.458.006,0,7.53-13.775,7.7-14.519.356-1.564,3.75-33.2,3.75-33.2Z" transform="translate(-460.958 -876.533)" fill="#f7a491"/>
          </g>
          <path id="Path_6685" data-name="Path 6685" d="M497.15,1054.738c.471,5.494.856,6.171-.714,10.177-.607.1-1.369-1.523-1.013-3.539.1-.589-1.021-.681-1.021-.681C495.366,1055.594,497.15,1054.738,497.15,1054.738Z" transform="translate(-369.42 -912.346)" fill="#f7a491"/>
          <path id="Path_6686" data-name="Path 6686" d="M467.549,1049.057c.375-.856,2.041-.618,2.041-.618,3.149.511,5.611,1.964,5.343,2.331-.312.427-.749.642-2.889.535s-3.264,1.284-5.672,1.07C465.034,1050.609,467.549,1049.057,467.549,1049.057Z" transform="translate(-351.038 -908.253)" fill="#eb9481"/>
          <path id="Path_6687" data-name="Path 6687" d="M476.226,1070.792c-.052-.535-3.059-2.951-3.827-2.977-.588-.021-.373.632.286,1.538a9.84,9.84,0,0,0-3.155-1.344c-1.114-.008-.173,1.049,1.516,3.127-1.415-1.113-3.859-3.266-4.269-2.971s.19,1.489,2.485,4.323a13.51,13.51,0,0,1-2.673-1.892c-.923-.777-.968.763,1.082,3.364a2.733,2.733,0,0,0,2.116.825c1.075.057,4.737-1.377,5.655-2.486A2.6,2.6,0,0,0,476.226,1070.792Z" transform="translate(-351.038 -920.802)" fill="#eb9481"/>
          <path id="Path_6688" data-name="Path 6688" d="M377.99,827.912l-17.426,1.8s-.8-14.48-.8-21.387c0-8.38.935-19.049,1.933-18.817a14.418,14.418,0,0,1,8.593,5.225C378.063,805.563,377.99,827.912,377.99,827.912Z" transform="translate(-282.346 -740.816)" fill="#288cc9"/>
          <path id="Path_6689" data-name="Path 6689" d="M201.442,935.974c-2.659-4.359-3.255-3.74-3.582-4.308-.385-.672.043-11.047.043-11.047s1.066-30.588,1.18-32.237L212.7,860.143l-11.768-11.086s-14.011,31.136-14.466,32.9,2.786,43.333,2.957,47c0,0-1.365,4.435-2.132,7.251s-.274,5.85-.372,6.678a26.843,26.843,0,0,0,.5,6.389c.586,3.005,1.364-.107,1.364-.107s-.116-5.758.327-5.685c.341.057.224,3.2.838,6.536.158.857.317,1.7.469,2.477.4,2.035,1.723,2.377,1.635.183a21.291,21.291,0,0,0-.3-2.97,17.66,17.66,0,0,1-.121-2.8,23.093,23.093,0,0,1-.107-2.886c.091.045.3-.3.5.6.235,1.087.238,3.505.7,5.078.264.892.7,2.788.7,2.788a18.661,18.661,0,0,0,1.364,2.729c.967-.086.668-2.189.157-3.354a14.332,14.332,0,0,0-.476-2.892s-.178-4.242.405-4.271c.248-.012.66,2.579,1.449,5.06.734,2.3,1.84,4.51,2.3,4.434.785-.128.235-2.771.235-2.771s-.482-1.832-.6-2.452c-.135-.727-.377-2.935-.377-2.935s-.495-7.722.059-7.7a3.591,3.591,0,0,1,2.153,1.13c.192.469.107,1.514.3,1.983a1.236,1.236,0,0,0,1.407.725c.576-.192.49-2.815.49-2.815A8.566,8.566,0,0,0,201.442,935.974Z" transform="translate(-170.24 -779.328)" fill="#f8a492"/>
          <path id="Path_6690" data-name="Path 6690" d="M146.968,1407.726s6.749,20.667,9.64,21.684c.768.27,5.087,1.364,5.781,3.016a.838.838,0,0,1,.044.147,1.718,1.718,0,0,1-1.725,2.011H147s-1.947-9.286-2.717-13.366c0,0-4.074-9.969-3.622-10.875S146.968,1407.726,146.968,1407.726Z" transform="translate(-140.623 -1140.631)" fill="#422226"/>
          <path id="Path_6691" data-name="Path 6691" d="M300.505,1470.389l2.264-7.248s4.754,2.038,7.131,1.7a71.164,71.164,0,0,0,7.017-1.7c9.487,3.165,17.259,4.7,15.845,7.248H300.505Z" transform="translate(-244.022 -1176.469)" fill="#422226"/>
          <path id="Path_6692" data-name="Path 6692" d="M261.022,786.565s-9.224,1.282-11.652,3.065c-2.734,2.008-11.2,11.374-11.2,11.374s17.623,50.482,16.941,59.464-2.616,22.284-2.616,22.284,34.468,2.192,47.429-2.925c0,0-4.337-20.383-4.337-25.727s-2.3-58.758-3.935-61.555-4.934-4.39-11.187-5.754S261.022,786.565,261.022,786.565Z" transform="translate(-203.707 -738.625)" fill="#1a9cff"/>
          <path id="Path_6693" data-name="Path 6693" d="M305.807,744.959l-2.283,14.949s8.338,17.8,13.316,16.255c4.176-1.3,1.607-17.044,1.607-17.044s-2.277-8.458-1.594-12.69S305.807,744.959,305.807,744.959Z" transform="translate(-245.975 -711.432)" fill="#f7a491"/>
          <path id="Path_6694" data-name="Path 6694" d="M320.687,746.429c.683-4.232-11.046-1.47-11.046-1.47l-.189,1.24a6.875,6.875,0,0,0,1.271,2.084,15.489,15.489,0,0,0,10.255,4.609A22.919,22.919,0,0,1,320.687,746.429Z" transform="translate(-249.808 -711.432)" fill="#f7a491"/>
          <g id="Group_6772" data-name="Group 6772" transform="translate(48.515)">
            <path id="Path_6695" data-name="Path 6695" d="M302.879,678.169c-.331-.12-2.657,17.026,1.756,21.743s13.012,6.262,16.1,2.546c3.412-4.11,3.24-22.537-3.621-27.39S302.879,678.169,302.879,678.169Z" transform="translate(-293.485 -665.791)" fill="#f7a491"/>
            <path id="Path_6696" data-name="Path 6696" d="M298.963,651.785a19.081,19.081,0,0,0-10,5.666c-2.408.282-5.681,1.6-9.061,7.163-4.156,6.835-1.087,14.408,3.751,18.124s4.759,8.052,4.759,8.052l.776-2.265a12.334,12.334,0,0,0,.606-5.229,10.157,10.157,0,0,0-.783-3.143c-1.163-2.481,2.5-4.13,3.527-6.194.791-1.59.829-5.226,2.075-7.854L296.1,664.1s3.433-2.653,6.792-1.9S305.767,650.407,298.963,651.785Z" transform="translate(-277.951 -651.679)" fill="#422226"/>
            <path id="Path_6697" data-name="Path 6697" d="M310.538,716.516c.035,2.092-.922,3.8-2.138,3.825s-2.23-1.659-2.265-3.75.922-3.8,2.138-3.825S310.5,714.424,310.538,716.516Z" transform="translate(-296.178 -691.185)" fill="#f7a491"/>
          </g>
          <path id="Path_6698" data-name="Path 6698" d="M205.766,825.6l15.427,12.035s6.812-6.532,10.233-13.757c3.463-7.314.427-28.662-3.259-27.67C219.921,798.43,205.766,825.6,205.766,825.6Z" transform="translate(-182.752 -745.13)" fill="#288cc9"/>
        </g>
        <g id="Group_6775" data-name="Group 6775" transform="translate(121.437 76.635)">
          <path id="Path_6700" data-name="Path 6700" d="M524.815,1098.917l-6.564,58.494s3.209,12.37,2.822,15.884-7.135,49.615-7.135,49.615l.3,2.532.164,7.5-25.225.189a113.022,113.022,0,0,0,12.753-7.067,5.107,5.107,0,0,0,2.125-3.66c1.985-14.209-1.943-61.6-1.943-61.6l-3.1-61.694Z" transform="translate(-487.48 -965.164)" fill="#f7a491"/>
          <path id="Path_6701" data-name="Path 6701" d="M607.793,1129.405c1.414.356,3.592,50.559,4.764,52.784,7.427,14.106,9.192,56.993,9.192,56.993l3.064,6.005-.7,5.787s-5.543,3.169-9.432,1.031l.6-5.795.459-7.741L597,1185.039l-10.253-54.5Z" transform="translate(-550.578 -984.881)" fill="#f7a491"/>
          <path id="Path_6702" data-name="Path 6702" d="M502.271,1135.3l1.987-117.1c-.154-9.79,3.117-19.181,7.135-28.1l8.5-14.264c2.739.867,4.248-7.211,7.127-6.89,2.171.243,3.658.743,5.674.861,3.8.224,6.106,7.626,10.174,7.162.019.235.805,2.123.867,2.289,1.945,5.235,8.652,9.881,11.3,25.425,3.01,17.645,17.232,128.539,16.857,130.609C543.122,1136.563,519.15,1139.456,502.271,1135.3Z" transform="translate(-495.945 -881.107)" fill="#f16356"/>
          <path id="Path_6703" data-name="Path 6703" d="M659.191,1218.079c0,.008-.006.008-.009,0Z" transform="translate(-597.423 -1042.228)" fill="#f47458"/>
          <path id="Path_6704" data-name="Path 6704" d="M511.413,1466.481h-26.04c-.963-.087-1.2-.871-.864-1.355.688-1,3.726-1.727,7.14-3.313,5.989.629,18.534-3.38,19.479-4.765C511.673,1459.822,511.948,1466.363,511.413,1466.481Z" transform="translate(-484.366 -1196.775)" fill="#422226"/>
          <path id="Path_6705" data-name="Path 6705" d="M675.929,1457.1s-2.313,6.55-4.813,6.361-4.689-5.354-4.689-5.354-.938,4.346-.5,6.74,4,4.85,6.439,3.779S678.117,1462.011,675.929,1457.1Z" transform="translate(-601.71 -1196.807)" fill="#422226"/>
          <path id="Path_6706" data-name="Path 6706" d="M534.262,857.878a39.334,39.334,0,0,1-7.1-1.654c-2.086-.726-5.556-2.312-5.556-2.312s1.949-16.319,6.856-26.2c1.881-3.786,4.019-5.869,6.566-6.512C535.224,821.148,534.262,857.878,534.262,857.878Z" transform="translate(-508.447 -785.558)" fill="#e59623"/>
          <path id="Path_6707" data-name="Path 6707" d="M538.915,838.118c.735-2.647,2.378-6.128,3.316-8.529,1.59-4.076,2.063-7.883,3.465-9.516.758-.878,10.473-.747,11.666-.863.492-.051,2.437.072,4.318.186l0,0c1.1.123,12.05.975,13.638,1.654,7.887,7.617,11.7,17.872,17.63,29.076,0,0-4.441,2.516-7.982,4.1-1.538.689-4.487,1.792-4.487,1.792s-3.736-6.426-5.851-9.233l-.983-2.111c-.075-.056-.43-.431-.532-.188-.158.377-6.812,35.661-6.812,35.661s-18.567,1.7-23.316-.544c0,0-.878-23.6-2.625-30.527C539.711,846.531,537.73,842.382,538.915,838.118Z" transform="translate(-519.404 -784.264)" fill="#ffb22d"/>
          <path id="Path_6708" data-name="Path 6708" d="M585,781.188s-1.517,8.232-1.213,11.479-1.157,13.712-7.709,13.747-2.1-10.865-1.482-14.047,1.618-15.472,1.618-15.472Z" transform="translate(-541.393 -756.905)" fill="#f7a491"/>
          <path id="Path_6709" data-name="Path 6709" d="M581.786,781.231a28.852,28.852,0,0,1,.595-4.837l8.595,4.47s-.31,1.683-.622,3.828A8.032,8.032,0,0,1,581.786,781.231Z" transform="translate(-547.37 -756.581)" fill="#f47458"/>
          <path id="Path_6710" data-name="Path 6710" d="M585.087,720.68a11.242,11.242,0,0,1,5.7,5.26c2.01,3.962,2.672,15.053-5.426,19.313s-13.439-3.6-12.936-10.639S575.173,718.348,585.087,720.68Z" transform="translate(-541.294 -720.312)" fill="#f7a491"/>
          <path id="Path_6711" data-name="Path 6711" d="M565.6,749.5c-.213,1.825.44,3.382,1.46,3.478s2.02-1.307,2.233-3.132-.44-3.382-1.461-3.478S565.812,747.677,565.6,749.5Z" transform="translate(-536.875 -737.162)" fill="#f7a491"/>
          <path id="Path_6712" data-name="Path 6712" d="M621.77,759.562c-.712,1.767-.357,3.622.791,4.143s2.657-.489,3.37-2.256.357-3.622-.792-4.143S622.482,757.795,621.77,759.562Z" transform="translate(-572.99 -744.148)" fill="#f7a491"/>
          <path id="Path_6715" data-name="Path 6715" d="M616.285,909.356c-1.621.87-4.134,2.2-6.309,3.177-1.028.457-2.686,1.1-3.669,1.479,2.378,4.424,4.628,8.979,4.336,9.922-.255.827-21.508,16.456-21.508,16.456l-4.247-.559s-7.486.856-7.659,1.719,3.158.631,3.6.761a4.8,4.8,0,0,1,1.163.508c-.675.31-1.567.723-2.415,1.04a11.383,11.383,0,0,1,5.134,6.07,25.084,25.084,0,0,0,8.608-4.267c4.952-2.437,29.835-16.427,30.2-19.089C623.742,925,619.953,916.79,616.285,909.356Z" transform="translate(-544.419 -842.571)" fill="#f8a492"/>
          <path id="Path_6716" data-name="Path 6716" d="M575.006,1002.059a5.5,5.5,0,0,0-.639,3.128c.312,1.352.655,1.721,1,2.951a3.79,3.79,0,0,0,1.622,2.582c1.248,1.075,7.237-1.23,7.237-1.23l-4.118-6.717-2.37.877a4.407,4.407,0,0,1-1.9-.584A12.292,12.292,0,0,1,575.006,1002.059Z" transform="translate(-542.531 -902.524)" fill="#f8a492"/>
        </g>
        <path id="Path_6717" data-name="Path 6717" d="M545.209,603.055a5.455,5.455,0,0,1,4.648-.867,4.308,4.308,0,0,1,3.019,5.4c-.7,2.691-3.832,5.275-10.533,6.487-5.262-4.323-6.738-8.106-6.039-10.8a4.307,4.307,0,0,1,5.266-3.243A5.459,5.459,0,0,1,545.209,603.055Z" transform="translate(-396.414 -565.798)" fill="#26bd68"/>
        <path id="Path_6718" data-name="Path 6718" d="M431.151,696.914a4.479,4.479,0,0,1,2.564-3.206c1.968-.833,4.106.437,5.016,2.585,1.053,2.487.45,6.212-3.267,10.8-5.884-.524-8.98-2.683-10.033-5.17-.91-2.148-.335-4.568,1.634-5.4A4.479,4.479,0,0,1,431.151,696.914Z" transform="translate(-324.542 -626.305)" fill="#26bd68"/>
        <g id="Group_6776" data-name="Group 6776" transform="translate(98.077)">
          <path id="Path_6719" data-name="Path 6719" d="M430.52,508.653a8.751,8.751,0,0,1,5.632-4.959,6.775,6.775,0,0,1,8.533,4.688c1.247,4.144-.912,10.138-9.062,17.236-10.714-1.424-15.821-5.234-17.068-9.377a6.776,6.776,0,0,1,4.531-8.618A8.751,8.751,0,0,1,430.52,508.653Z" transform="translate(-418.243 -503.387)" fill="#26bd68"/>
        </g>
      </g>
    </g>
    <g id="Group_6781" data-name="Group 6781" transform="translate(470.194 721.801)">
      <g id="Group_6748" data-name="Group 6748" transform="translate(0 0)">
        <path id="Path_6619" data-name="Path 6619" d="M82.369,52.946c-.132-.465-.264-.931-.414-1.391-.209-.471-.431-.937-.67-1.393-.049-.093-.1-.185-.152-.277a4.922,4.922,0,0,0-.3-.5,35.952,35.952,0,0,1-3.017-4.4c-1.209-2.491-.509-5.188.426-7.634,1.19-3.111,2.672-6.157,3.078-9.51.987-8.173-2.972-17.017-11.363-19.223-5.838-1.535-13.1-.672-17.876,3.274a15.805,15.805,0,0,0-3.357,3.764c-3.224,5.33-5.03,13.123-3.053,19.408a11.5,11.5,0,0,0,.786,2.456c.88,2.332,2.026,4.5,2.4,6.995a15.449,15.449,0,0,1,0,2.861,9.021,9.021,0,0,1-.852,3.238,11.958,11.958,0,0,1-1.686,2.451c-.018.021-.044.069-.025.1,1.572,2.344,2.331,5.088,3.449,7.655,1.042,2.391,2.456,4.878,4.878,6.089a8.657,8.657,0,0,0,7.429-.341,15.957,15.957,0,0,0,5.077-4.37c1.949-2.371,3.678-4.968,6.341-6.609a15.506,15.506,0,0,1,5.082-1.874,3.7,3.7,0,0,1,2.682.32,3.719,3.719,0,0,0,1.384.651c.046-.009.094-.018.139-.025s.086-.02.128-.032C82.713,54.065,82.53,53.509,82.369,52.946Z" transform="translate(-44.725 -7.773)" fill="#5db7ad"/>
        <path id="Path_6620" data-name="Path 6620" d="M57.76,67.727a7.07,7.07,0,0,1-3.189-.7c-2.557-1.279-3.981-3.959-4.937-6.153-.343-.79-.658-1.606-.962-2.4A26.127,26.127,0,0,0,46.2,53.237a.212.212,0,0,1,.035-.251A11.806,11.806,0,0,0,47.9,50.561a8.949,8.949,0,0,0,.839-3.192,15.4,15.4,0,0,0,0-2.837,21.585,21.585,0,0,0-1.642-5.1c-.252-.607-.514-1.234-.751-1.865-.06-.156-.121-.314-.183-.471a8.787,8.787,0,0,1-.612-2.013c-2.061-6.543.058-14.507,3.071-19.49a15.916,15.916,0,0,1,3.384-3.8A19.267,19.267,0,0,1,64.3,7.779,22.426,22.426,0,0,1,70,8.5a14.7,14.7,0,0,1,9.278,7.437A20.049,20.049,0,0,1,81.453,27.86a30.138,30.138,0,0,1-2.311,7.589c-.259.639-.525,1.3-.775,1.953-.89,2.328-1.638,5.044-.429,7.532a18.325,18.325,0,0,0,1.971,2.977c.349.459.708.933,1.036,1.408a4.746,4.746,0,0,1,.307.513c.051.09.1.182.153.278.228.435.454.906.674,1.4.148.454.276.909.4,1.348l.017.06c.113.4.241.8.363,1.193l.152.483a.122.122,0,0,1-.009.1.128.128,0,0,1-.075.063,1.16,1.16,0,0,1-.141.035l-.04.007-.1.018a.129.129,0,0,1-.036,0,2.448,2.448,0,0,1-1.075-.452c-.118-.073-.238-.149-.36-.215a3.257,3.257,0,0,0-1.615-.417,4.9,4.9,0,0,0-.98.109A15.271,15.271,0,0,0,73.543,55.7a21.1,21.1,0,0,0-5.21,5.205c-.357.453-.728.923-1.1,1.375a16.271,16.271,0,0,1-5.118,4.4A9.942,9.942,0,0,1,57.76,67.727ZM46.436,53.137a26.452,26.452,0,0,1,2.473,5.246c.3.787.617,1.6.958,2.385.938,2.155,2.335,4.785,4.818,6.027a6.807,6.807,0,0,0,3.074.676A9.665,9.665,0,0,0,62,66.454a16.009,16.009,0,0,0,5.036-4.335c.371-.451.741-.919,1.1-1.372a21.287,21.287,0,0,1,5.277-5.264,15.514,15.514,0,0,1,5.123-1.891,5.188,5.188,0,0,1,1.031-.114,3.548,3.548,0,0,1,1.736.447c.128.069.251.147.374.223a2.271,2.271,0,0,0,.942.413l.086-.017.027,0-.111-.353c-.124-.392-.251-.8-.366-1.2l-.017-.06c-.125-.437-.252-.888-.4-1.326-.212-.477-.436-.943-.662-1.374-.048-.092-.1-.183-.15-.273a4.886,4.886,0,0,0-.293-.49c-.324-.47-.683-.942-1.029-1.4a18.525,18.525,0,0,1-2-3.02c-1.25-2.575-.489-5.355.421-7.734.25-.654.518-1.316.777-1.957A29.985,29.985,0,0,0,81.2,27.831c1.24-10.26-4.731-17.367-11.268-19.085A22.1,22.1,0,0,0,64.3,8.033a19.008,19.008,0,0,0-12.135,3.961,15.6,15.6,0,0,0-3.329,3.732c-2.984,4.933-5.083,12.816-3.04,19.3a8.656,8.656,0,0,0,.6,1.975c.062.158.124.316.183.473.237.627.5,1.252.748,1.857a22.041,22.041,0,0,1,1.66,5.165,15.6,15.6,0,0,1,0,2.89,9.154,9.154,0,0,1-.866,3.284A11.931,11.931,0,0,1,46.436,53.137Z" transform="translate(-44.731 -7.779)" fill="#205e9f"/>
      </g>
      <path id="Path_6621" data-name="Path 6621" d="M82.329,52.946c-.132-.465-.264-.931-.414-1.391-.209-.471-.431-.937-.67-1.393-.049-.093-.1-.185-.152-.277a4.921,4.921,0,0,0-.3-.5,35.951,35.951,0,0,1-3.017-4.4c-1.209-2.491-.509-5.188.426-7.634,1.19-3.111,2.672-6.157,3.078-9.51.987-8.173-2.972-17.017-11.363-19.223a22.454,22.454,0,0,0-6.02-.711,23.868,23.868,0,0,1,2.357.778A13.957,13.957,0,0,1,69.684,10.5a13.436,13.436,0,0,1,4.153,5.6,12.545,12.545,0,0,1,.977,5.512,15.328,15.328,0,0,1-.224,2,3.717,3.717,0,0,1-.574,1.624c-1.036,1.306-2.142-1.5-2.383-2.128a17.327,17.327,0,0,0-4.7-6.625,11.675,11.675,0,0,0-6.741-3.112,13.713,13.713,0,0,0-2.71.012,10.867,10.867,0,0,1,5.837,2.318,17.793,17.793,0,0,1,4.767,5.685,13.491,13.491,0,0,1,1.811,7.47c-.006.085-.133.141-.177.047-.364-.762-.742-1.519-1.153-2.26-2.339-4.223-5.741-8.016-10.6-9.2-2.456-.6-5.214-.454-7.195,1.288a9.689,9.689,0,0,0-3.43,6.022,5.894,5.894,0,0,1,1.39-2.186c.064-.058.2,0,.159.093-1.161,2.853-.965,6.01-1.853,8.934a.1.1,0,0,1-.183,0,11.057,11.057,0,0,1-.5-4.148,19.622,19.622,0,0,0-.306,4.057,45.523,45.523,0,0,0,.847,5.792.1.1,0,0,1-.174.072A15.334,15.334,0,0,1,45.7,35.431a15.538,15.538,0,0,0,.72,2.087c.88,2.332,2.026,4.5,2.4,6.995a15.449,15.449,0,0,1,0,2.861,9.02,9.02,0,0,1-.852,3.238,11.958,11.958,0,0,1-1.686,2.451c-.018.021-.044.069-.025.1,1.572,2.344,2.331,5.088,3.449,7.655,1.042,2.391,2.456,4.878,4.878,6.089a8.657,8.657,0,0,0,7.429-.341,15.957,15.957,0,0,0,5.077-4.37c1.949-2.371,3.678-4.968,6.341-6.609a15.505,15.505,0,0,1,5.082-1.874,3.7,3.7,0,0,1,2.682.32,3.719,3.719,0,0,0,1.384.651c.046-.009.094-.018.139-.025s.086-.02.128-.032C82.673,54.065,82.49,53.509,82.329,52.946ZM48.288,40.173a.1.1,0,0,1,.108-.139c1.579.325,2.675,1.707,3.716,2.826a11.321,11.321,0,0,0,3.2,2.6,5.851,5.851,0,0,0,.945.176c2.382.231,4.573-.8,6.622-1.886A64.035,64.035,0,0,0,68.6,40.443a35.893,35.893,0,0,0,5.173-4.236c.075-.073.212.024.149.116a61.341,61.341,0,0,1-3.951,5.29,35.076,35.076,0,0,1-5.506,5.3c-2.042,1.55-4.478,3.014-7.115,3.1a5.106,5.106,0,0,1-3.079-.954,12.166,12.166,0,0,0,2.2,4.077,4.2,4.2,0,0,0,4.3,1,13.216,13.216,0,0,0,4.26-2.717.1.1,0,0,1,.135.135,40.6,40.6,0,0,1-4.788,4.989c-1.236,1.04-2.856,2.116-4.468,1.219a6.539,6.539,0,0,1-2.706-3.95c-.311-1-.517-2.035-.842-3.035A16.374,16.374,0,0,0,51,47.635a.1.1,0,0,1,.149-.116,17.421,17.421,0,0,1,1.985,2.258c-.479-.925-1.071-1.8-1.564-2.728a30.439,30.439,0,0,1-1.8-4.1C49.281,42.013,48.806,41.079,48.288,40.173Zm27.6,11.263c-2.09,0-3.579,1.941-4.719,3.458-1.378,1.834-2.752,3.684-4.28,5.4-2.959,3.318-8.044,7.794-12.643,4.653a11.847,11.847,0,0,1-4.384-5.539,21.625,21.625,0,0,1-.828-3.772,6.046,6.046,0,0,1,.054-3.178.1.1,0,0,1,.159-.042,6,6,0,0,1,.978,2.6l.006.022a43.819,43.819,0,0,1-.243-7.12c0-.127.174-.117.191,0,0,.039.01.076.016.115a.077.077,0,0,1,.028.049c.046.331.091.664.137,1,.254,1.45.6,2.884.908,4.324a.1.1,0,0,1-.128.114,14.555,14.555,0,0,0,1.4,3.659A7.625,7.625,0,0,0,55.468,60.3a8.166,8.166,0,0,0,3.975.835c.058,0,.116.062.092.118-.471,1.15-2.264,1.114-3.278,1a6.016,6.016,0,0,1-4.017-2.35,9.508,9.508,0,0,1-1.5-2.783,8.942,8.942,0,0,0,1.36,4.294,5.393,5.393,0,0,0,5.471,2.836c2.638-.473,4.9-2.371,6.729-4.222,1.993-2.013,3.709-4.277,5.709-6.281,1.568-1.571,3.528-3.508,5.919-2.485C76.026,51.3,75.974,51.436,75.886,51.436Z" transform="translate(-44.685 -7.773)" fill="#5db7ad" opacity="0.5" style="mix-blend-mode: multiply;isolation: isolate"/>
      <g id="Group_6749" data-name="Group 6749" transform="translate(3.734 3.309)">
        <path id="Path_6622" data-name="Path 6622" d="M51.047,51.648c.04.117.074.236.117.351a9.048,9.048,0,0,0,3.643,4.912,4.488,4.488,0,0,0,3.071.629,7.067,7.067,0,0,0,2.874-1.252,10.081,10.081,0,0,0,3.66-4.608c-.351.257-.685.535-1.008.825-1.449,1.3-2.837,2.9-4.7,3.616a4.522,4.522,0,0,1-4.783-.817,10.418,10.418,0,0,1-2.515-4.5c-.471-1.458-.786-2.953-1.163-4.435a17.578,17.578,0,0,0,.094,1.919c.223,1.106.482,2.205.715,3.308A.1.1,0,0,1,51.047,51.648Z" transform="translate(-48.205 -9.269)" fill="#5db7ad" opacity="0.5" style="mix-blend-mode: multiply;isolation: isolate"/>
        <path id="Path_6623" data-name="Path 6623" d="M82.207,52.8c-.132-.465-.264-.931-.414-1.391-.209-.471-.431-.937-.67-1.393-.049-.093-.1-.185-.152-.277a4.924,4.924,0,0,0-.3-.5,35.95,35.95,0,0,1-3.017-4.4c-1.209-2.491-.509-5.188.426-7.634,1.19-3.111,2.672-6.157,3.078-9.51.762-6.307-1.424-13.01-6.315-16.757a11.008,11.008,0,0,1,.917,1.138A16.9,16.9,0,0,1,78.37,18.9a30.775,30.775,0,0,1,.441,7.205,13.551,13.551,0,0,1-2.062,6.826c-.048.07-.186.053-.177-.048a18.047,18.047,0,0,0-.647-7.194A14.289,14.289,0,0,1,74.1,32.132,22.6,22.6,0,0,1,69.447,37.7c-.066.059-.194,0-.159-.092a38.779,38.779,0,0,0,1.458-5.579,12.247,12.247,0,0,1-1.22,2.1.1.1,0,0,1-.174-.073,10.973,10.973,0,0,0-3.239-9.23,10.069,10.069,0,0,0-9.446-2.527A11.435,11.435,0,0,0,48.3,32.96c-.115,4.1,1.969,9.164,6.147,10.573,3.5,1.182,7.353-.225,10.463-1.868a40.1,40.1,0,0,0,4.777-3,27.335,27.335,0,0,0,2.237-1.727,14.816,14.816,0,0,1,2.794-2.359.1.1,0,0,1,.142.082c-.082,1.448-1,2.608-1.556,3.9a2.938,2.938,0,0,0-.243,2.465c.29.511.755.9,1.089,1.382a.1.1,0,0,1-.082.142q-.127,0-.254.013c-2.446.2-4.547,1.929-6.262,3.547-1.394,1.316-2.629,2.808-4.143,3.995A10.273,10.273,0,0,1,58.8,52.412,3.289,3.289,0,0,1,56.558,52,3.939,3.939,0,0,0,59.2,53.2,7.021,7.021,0,0,0,63.533,51.3c2.492-1.925,4.427-4.7,7.4-5.956A3.815,3.815,0,0,1,72.5,45c.1,0,.55,0,.4.256a4.512,4.512,0,0,1-.684.725q-.342.349-.684.7c-.457.471-.913.949-1.325,1.459-1.794,2.217-2.8,4.935-4.221,7.38a32.791,32.791,0,0,1-3.26,4.924,12.72,12.72,0,0,1-1.278,1.306,7.03,7.03,0,0,0,1.445-.894,21.422,21.422,0,0,0,2.184-1.914c.679-.733,1.335-1.487,1.99-2.242.765-.947,1.49-1.928,2.215-2.911a14.725,14.725,0,0,1,3.8-3.949c1.516-.95,3.579-1.7,5.086-.32.622.568,1.114,1.543.409,2.27a5.275,5.275,0,0,1-1.3.86c-.62.342-1.256.653-1.9.959a16.316,16.316,0,0,0-3.648,2.134,15.28,15.28,0,0,0-2.5,2.776c-.841,1.177-1.593,2.414-2.356,3.643l.091-.111c1.949-2.371,3.678-4.968,6.341-6.609a15.505,15.505,0,0,1,5.082-1.874,3.7,3.7,0,0,1,2.682.32,3.719,3.719,0,0,0,1.384.651c.046-.009.094-.018.139-.025s.086-.02.128-.032C82.55,53.922,82.368,53.366,82.207,52.8Z" transform="translate(-48.297 -10.939)" fill="#f7a491" opacity="0.5" style="mix-blend-mode: multiply;isolation: isolate"/>
      </g>
      <path id="Path_6668" data-name="Path 6668" d="M68.578,26.936A21.2,21.2,0,0,0,64.272,21.3a17.849,17.849,0,0,0-6.734-3.3,8.272,8.272,0,0,0-6.584.764c-1.891,1.191-2.847,3.217-3.586,5.234-.019.05.045.025.059-.005.983-2.368,2.216-4.5,4.679-5.559,2.136-.919,4.789-.356,6.858.435a16.938,16.938,0,0,1,5.55,3.154,27.059,27.059,0,0,1,3.968,4.995C68.514,27.074,68.6,26.981,68.578,26.936Z" transform="translate(-44.606 -7.313)" fill="#205e9f" opacity="0.5"/>
      <path id="Path_6669" data-name="Path 6669" d="M70.648,25.922a14.719,14.719,0,0,0-7.77-12.11c-.024-.013-.065.037-.043.051,3.888,2.556,7.088,6.769,7.483,11.528a16.9,16.9,0,0,1-1.065,7.872c-.483,1.15-1.006,2.293-1.582,3.4a28.529,28.529,0,0,1-2.243,3.231c-.063.089.01.147.085.068a21.556,21.556,0,0,0,3.9-6.412A17.191,17.191,0,0,0,70.648,25.922Z" transform="translate(-43.877 -7.495)" fill="#205e9f" opacity="0.5"/>
      <g id="Group_6766" data-name="Group 6766" transform="translate(4.899 36.335)">
        <path id="Path_6670" data-name="Path 6670" d="M61.444,55.271c-1.418,1.316-2.952,2.827-5.055,2.257-1.65-.447-2.84-2.058-3.63-3.47-1.908-3.405-2.2-7.365-3.308-11.043-.006-.022-.046.013-.042.031,1.03,3.98,1.319,8.209,3.54,11.784a5.749,5.749,0,0,0,3.961,2.98c1.875.205,3.324-1.307,4.554-2.494C61.493,55.289,61.481,55.237,61.444,55.271Z" transform="translate(-49.409 -42.454)" fill="#205e9f"/>
        <path id="Path_6671" data-name="Path 6671" d="M71.962,42.482a18.532,18.532,0,0,0-7.383,5.273,11.986,11.986,0,0,1-4.221,3.114,4.817,4.817,0,0,1-2.629.241,3.824,3.824,0,0,1-2.2-1.32c-.01-.012-.035.018-.025.03a3.908,3.908,0,0,0,1.835,1.348,4.369,4.369,0,0,0,2.31.084,8.959,8.959,0,0,0,3.97-2.325c1.23-1.127,2.276-2.424,3.569-3.488a19.469,19.469,0,0,1,2.209-1.6,23.386,23.386,0,0,1,2.557-1.252C71.988,42.569,72.039,42.457,71.962,42.482Z" transform="translate(-49.122 -42.479)" fill="#205e9f"/>
        <path id="Path_6672" data-name="Path 6672" d="M76.99,45.354c-2.482-.288-4.677,1.673-6.216,3.39-1.87,2.088-3.326,4.515-4.985,6.766-1.682,2.279-3.667,4.538-6.5,5.3a7.05,7.05,0,0,1-7.527-2.858c-.062-.087-.123-.175-.182-.263-.012-.016-.041.015-.031.028A7.753,7.753,0,0,0,54.2,60.353a6.924,6.924,0,0,0,3.558.853c2.614-.054,4.734-1.643,6.432-3.485a78.179,78.179,0,0,0,5.073-6.826c1.612-2.182,3.7-4.785,6.53-5.3a4.586,4.586,0,0,1,1.116-.062C76.978,45.534,77.074,45.365,76.99,45.354Z" transform="translate(-49.308 -42.344)" fill="#205e9f"/>
      </g>
    </g>
    <g id="Group_6782" data-name="Group 6782" transform="translate(473.369 735.301)">
      <path id="Path_6710-2" data-name="Path 6710" d="M584.884,720.549s4.259.772,5.622,4.651,1.8,12.529-5.351,17.078-11.979-3.01-12.758-9.408S574.348,717.5,584.884,720.549Z" transform="translate(-572.272 -719.934)" fill="#f7a491"/>
    </g>
  </g>
</svg>
